<svg id="visual" viewBox="0 0 900 600" width="900" height="600" xmlns="http://www.w3.org/2000/svg" xmlns:xlink="http://www.w3.org/1999/xlink" version="1.1"><rect x="0" y="0" width="900" height="600" fill="#0F0F0F"></rect><path d="M0 213L150 252L300 214L450 317L600 283L750 217L900 260L900 601L750 601L600 601L450 601L300 601L150 601L0 601Z" fill="#5add8e"></path><path d="M0 237L150 266L300 262L450 253L600 360L750 270L900 253L900 601L750 601L600 601L450 601L300 601L150 601L0 601Z" fill="#53d386"></path><path d="M0 282L150 314L300 391L450 358L600 278L750 299L900 357L900 601L750 601L600 601L450 601L300 601L150 601L0 601Z" fill="#4cc97e"></path><path d="M0 384L150 433L300 435L450 403L600 380L750 319L900 306L900 601L750 601L600 601L450 601L300 601L150 601L0 601Z" fill="#44c077"></path><path d="M0 395L150 447L300 404L450 436L600 363L750 450L900 361L900 601L750 601L600 601L450 601L300 601L150 601L0 601Z" fill="#3db66f"></path><path d="M0 455L150 487L300 481L450 427L600 407L750 399L900 459L900 601L750 601L600 601L450 601L300 601L150 601L0 601Z" fill="#36ad68"></path><path d="M0 452L150 469L300 437L450 505L600 478L750 480L900 470L900 601L750 601L600 601L450 601L300 601L150 601L0 601Z" fill="#2ea360"></path><path d="M0 550L150 543L300 508L450 516L600 497L750 502L900 497L900 601L750 601L600 601L450 601L300 601L150 601L0 601Z" fill="#269a59"></path><path d="M0 531L150 544L300 575L450 547L600 574L750 549L900 540L900 601L750 601L600 601L450 601L300 601L150 601L0 601Z" fill="#1e9152"></path></svg>